<?xml version="1.0" standalone="no"?>
<!DOCTYPE svg PUBLIC "-//W3C//DTD SVG 20010904//EN"
 "http://www.w3.org/TR/2001/REC-SVG-20010904/DTD/svg10.dtd">
<svg version="1.0" xmlns="http://www.w3.org/2000/svg"
 width="1024.000000pt" height="1024.000000pt" viewBox="0 0 1024.000000 1024.000000"
 preserveAspectRatio="xMidYMid meet">

<g transform="translate(0.000000,1024.000000) scale(0.100000,-0.100000)"
fill="#000000" stroke="none">
<path d="M0 5120 l0 -5120 5120 0 5120 0 0 5120 0 5120 -5120 0 -5120 0 0
-5120z m2058 4213 l-3 -127 -222 -74 -223 -74 0 -159 0 -159 231 -2 230 -3 2
-123 2 -122 -627 0 -628 0 0 218 c1 381 22 489 115 586 118 124 300 164 438
96 79 -39 96 -51 135 -95 l40 -45 53 24 c30 13 116 52 191 85 138 62 232 99
256 100 10 1 12 -28 10 -126z m6078 -747 c5 -12 -121 -336 -226 -581 -21 -49
-57 -134 -79 -187 -121 -290 -290 -655 -630 -1363 -242 -503 -249 -523 -189
-544 22 -8 180 -9 539 -5 369 4 509 2 514 -6 12 -20 -4 -54 -51 -105 -26 -27
-70 -77 -98 -111 -97 -115 -901 -1031 -916 -1044 -21 -18 -575 -658 -775 -896
-55 -65 -154 -181 -220 -259 -216 -251 -921 -1104 -1006 -1215 -15 -19 -29
-33 -32 -30 -7 8 87 225 458 1065 139 314 308 696 375 850 67 154 149 338 183
409 65 140 80 203 52 226 -14 12 -106 15 -515 20 -274 3 -502 8 -506 12 -10
10 15 45 130 183 56 66 115 138 131 160 17 21 46 57 66 79 19 23 84 100 144
171 61 72 114 135 120 141 5 6 80 96 165 199 85 104 193 234 240 289 78 93
209 250 303 364 21 26 48 58 60 72 12 14 40 48 62 75 21 28 42 52 45 55 7 6
309 371 542 655 183 224 446 543 492 600 19 22 118 144 221 270 329 404 380
465 388 465 4 0 10 -6 13 -14z m-6954 -530 l-3 -114 -35 -7 c-91 -17 -152
-141 -141 -288 8 -117 53 -181 135 -193 99 -15 143 41 206 261 90 311 123 372
233 426 40 20 64 24 138 24 80 0 97 -3 148 -30 65 -32 149 -116 173 -174 53
-122 67 -287 35 -421 -50 -214 -137 -316 -278 -328 l-53 -4 0 116 0 116 26 0
c33 0 79 48 95 98 6 20 14 87 16 147 4 102 3 113 -19 155 -45 84 -146 116
-206 65 -40 -34 -54 -65 -106 -252 -74 -262 -109 -332 -197 -396 -40 -29 -132
-57 -187 -57 -52 0 -132 27 -187 63 -64 41 -115 111 -146 195 -21 60 -24 83
-24 217 1 144 2 154 32 232 62 162 144 243 265 261 86 13 83 17 80 -112z
m-142 -1296 l0 -190 513 0 512 0 0 -125 0 -125 -512 0 -513 0 0 -210 0 -210
-110 0 -110 0 0 525 0 525 110 0 110 0 0 -190z m1033 -1258 l2 -122 -627 0
-628 0 0 125 0 125 626 -2 625 -3 2 -123z m0 -814 l-3 -413 -625 -3 -625 -2 0
125 0 125 520 0 521 0 -3 290 -3 290 110 0 110 0 -2 -412z m-1033 -998 l0
-300 160 0 160 0 0 260 0 260 110 0 110 0 0 -259 0 -258 83 3 c45 1 155 0 245
-4 l163 -7 2 -123 2 -122 -627 0 -628 0 0 425 0 425 110 0 110 0 0 -300z m595
-1111 c31 -14 49 -26 133 -89 26 -19 63 -43 82 -54 19 -10 40 -24 45 -30 18
-20 83 -66 94 -66 6 0 29 -18 53 -40 24 -23 55 -48 70 -57 15 -10 32 -30 38
-46 11 -33 13 -746 2 -784 -4 -12 -41 -48 -83 -80 -42 -32 -123 -96 -179 -143
-156 -130 -200 -160 -232 -160 -40 0 -113 37 -176 87 -29 24 -59 43 -67 43 -8
0 -15 4 -15 9 0 14 61 62 96 77 18 7 45 24 60 36 36 29 63 45 92 58 12 5 53
29 90 52 37 24 76 49 87 55 11 7 41 24 68 38 26 14 47 29 47 33 0 4 10 12 23
17 22 10 22 13 19 155 -2 80 -6 161 -9 180 -3 19 -5 69 -4 112 1 42 -1 78 -6
81 -4 2 -39 -4 -78 -14 -140 -36 -132 -39 -305 130 -84 82 -150 153 -146 159
3 6 -2 13 -12 16 -18 6 -226 215 -220 221 26 25 380 28 433 4z m-489 -126 c71
-80 148 -161 419 -440 131 -134 212 -229 284 -331 23 -32 23 -34 5 -54 -11
-11 -28 -24 -39 -30 -28 -12 -59 -31 -87 -51 -51 -37 -275 -192 -308 -214 -19
-12 -39 -26 -45 -30 -41 -32 -184 -122 -201 -127 -45 -14 -90 46 -154 204 -24
59 -71 161 -114 250 -15 30 -69 127 -120 215 -52 88 -91 165 -87 170 40 65
117 175 166 238 33 43 65 86 70 95 6 10 20 32 33 49 12 17 22 35 22 40 0 5 11
20 24 32 13 13 27 34 30 47 4 13 10 24 15 24 4 0 43 -39 87 -87z"/>
<path d="M1163 9191 c-47 -12 -80 -36 -100 -74 -15 -26 -19 -63 -21 -204 l-4
-173 177 0 176 0 -2 140 c-1 155 -10 209 -40 252 -36 51 -117 76 -186 59z"/>
<path d="M1204 2232 c-14 -9 -104 -171 -104 -187 0 -6 -8 -19 -18 -29 -11 -9
-25 -34 -32 -56 -12 -35 -11 -46 9 -102 13 -35 28 -76 36 -93 7 -16 18 -48 25
-70 21 -67 51 -125 66 -125 7 0 25 16 40 35 14 19 30 35 34 35 4 0 65 55 134
123 91 90 126 130 126 147 0 14 -16 41 -39 64 -21 23 -85 91 -141 151 -105
111 -116 121 -136 107z"/>
</g>
</svg>
